name C:\Users\u0101727\Documents\MyRepositories\upper-imu-dc\Results\main_tracking\Case_50\kinematics.mot
datacolumns 10
datarows 37
range 1.62000000 1.98000000
endheader 
time	clav_prot	clav_elev	scapula_abduction	scapula_elevation	scapula_upward_rot	scapula_winging	plane_elv	shoulder_elv	axial_rot	
          1.62000000	        -43.32617300	          7.25318676	        -24.25717650	         -3.58805113	         49.11681382	        -11.78173247	          2.62603649	         62.54118539	         -0.97911787	
          1.63000000	        -43.37309844	          7.29688676	        -24.15424329	         -3.58040466	         49.35983608	        -11.84979902	          2.62960773	         62.85377688	         -0.95516870	
          1.64000000	        -43.42089963	          7.34065345	        -24.05028365	         -3.57266469	         49.60580927	        -11.91831842	          2.62730408	         63.16829552	         -0.93468021	
          1.65000000	        -43.46948647	          7.38426361	        -23.94524887	         -3.56494802	         49.85452190	        -11.98712929	          2.61888640	         63.48466702	         -0.91782509	
          1.66000000	        -43.51875312	          7.42755083	        -23.83904956	         -3.55733597	         50.10581124	        -12.05608472	          2.60417266	         63.80276817	         -0.90469211	
          1.67000000	        -43.56857633	          7.47042819	        -23.73154134	         -3.54986036	         50.35958838	        -12.12506036	          2.58303973	         64.12242093	         -0.89530875	
          1.68000000	        -43.61881518	          7.51290561	        -23.62251761	         -3.54249245	         50.61585472	        -12.19396037	          2.55542629	         64.44339075	         -0.88966489	
          1.69000000	        -43.66931285	          7.55509907	        -23.51171126	         -3.53513662	         50.87470693	        -12.26272082	          2.52133683	         64.76538997	         -0.88773435	
          1.70000000	        -43.71990048	          7.59722847	        -23.39880574	         -3.52763100	         51.13632876	        -12.33130946	          2.48084635	         65.08808734	         -0.88949121	
          1.71000000	        -43.77040244	          7.63960252	        -23.28345355	         -3.51975630	         51.40097006	        -12.39972111	          2.43410454	         65.41112437	         -0.89491940	
          1.72000000	        -43.82064129	          7.68259285	        -23.16529720	         -3.51125145	         51.66891745	        -12.46796905	          2.38133826	         65.73413737	         -0.90401556	
          1.73000000	        -43.87044134	          7.72660217	        -23.04398773	         -3.50183333	         51.94046270	        -12.53607391	          2.32285077	         66.05678223	         -0.91678651	
          1.74000000	        -43.91963003	          7.77203259	        -22.91919807	         -3.49121657	         52.21587380	        -12.60405174	          2.25901639	         66.37875837	         -0.93324303	
          1.75000000	        -43.96803749	          7.81925839	        -22.79063153	         -3.47913068	         52.49537096	        -12.67190332	          2.19027031	         66.69982844	         -0.95339170	
          1.76000000	        -44.01549496	          7.86860506	        -22.65802744	         -3.46533338	         52.77910700	        -12.73960535	          2.11709466	         67.01983191	         -0.97722573	
          1.77000000	        -44.06183287	          7.92033402	        -22.52116575	         -3.44962028	         53.06715098	        -12.80710373	          2.04000308	         67.33869293	         -1.00471561	
          1.78000000	        -44.10687875	          7.97463107	        -22.37987093	         -3.43183247	         53.35947438	        -12.87430855	          1.95952610	         67.65642378	         -1.03579973	
          1.79000000	        -44.15045550	          8.03159705	        -22.23401399	         -3.41186280	         53.65594089	        -12.94109044	          1.87619908	         67.97312533	         -1.07037569	
          1.80000000	        -44.19237984	          8.09124049	        -22.08351174	         -3.38966136	         53.95630152	        -13.00727839	          1.79055309	         68.28898489	         -1.10829300	
          1.81000000	        -44.23246171	          8.15347317	        -21.92832295	         -3.36523937	         54.26019644	        -13.07265985	          1.70310900	         68.60427088	         -1.14934843	
          1.82000000	        -44.27050504	          8.21811042	        -21.76844213	         -3.33867030	         54.56716472	        -13.13698373	          1.61437471	         68.91932340	         -1.19328456	
          1.83000000	        -44.30631070	          8.28487726	        -21.60389233	         -3.31008756	         54.87666199	        -13.19996716	          1.52484552	         69.23453976	         -1.23979254	
          1.84000000	        -44.33968198	          8.35341995	        -21.43471881	         -3.27967871	         55.18808432	        -13.26130578	          1.43500731	         69.55035513	         -1.28851912	
          1.85000000	        -44.37043264	          8.42332121	        -21.26098508	         -3.24767744	         55.50079564	        -13.32068658	          1.34534201	         69.86721998	         -1.33907782	
          1.86000000	        -44.39839631	          8.49411771	        -21.08277115	         -3.21435367	         55.81415588	        -13.37780202	          1.25633392	         70.18557658	         -1.39106359	
          1.87000000	        -44.42343536	          8.56532050	        -20.90017173	         -3.18000158	         56.12754957	        -13.43236414	          1.16847468	         70.50583622	         -1.44407088	
          1.88000000	        -44.44544738	          8.63643985	        -20.71329193	         -3.14492408	         56.44041510	        -13.48411804	          1.08226413	         70.82835769	         -1.49771446	
          1.89000000	        -44.46436830	          8.70701479	        -20.52223969	         -3.10941364	         56.75227358	        -13.53285392	          0.99820579	         71.15342722	         -1.55165184	
          1.90000000	        -44.48017256	          8.77664476	        -20.32711787	         -3.07373111	         57.06275363	        -13.57841692	          0.91679755	         71.48124051	         -1.60560438	
          1.91000000	        -44.49287189	          8.84501818	        -20.12802000	         -3.03808598	         57.37160724	        -13.62071409	          0.83852006	         71.81188756	         -1.65937326	
          1.92000000	        -44.50251420	          8.91193313	        -19.92503321	         -3.00262155	         57.67871321	        -13.65971801	          0.76382632	         72.14534185	         -1.71284625	
          1.93000000	        -44.50918319	          8.97730648	        -19.71824842	         -2.96740756	         57.98406764	        -13.69546662	          0.69313520	         72.48145524	         -1.76599254	
          1.94000000	        -44.51299811	          9.04117008	        -19.50777514	         -2.93244132	         58.28776292	        -13.72805898	          0.62683007	         72.81996013	         -1.81884566	
          1.95000000	        -44.51411259	          9.10365403	        -19.29375650	         -2.89765756	         58.58995930	        -13.75764676	          0.56526133	         73.16047918	         -1.87147609	
          1.96000000	        -44.51271193	          9.16495837	        -19.07638012	         -2.86294613	         58.89085333	        -13.78442169	          0.50875016	         73.50254202	         -1.92395712	
          1.97000000	        -44.50900836	          9.22531528	        -18.85588211	         -2.82817613	         59.19064721	        -13.80859980	          0.45759104	         73.84560813	         -1.97632787	
          1.98000000	        -44.50323461	          9.28494497	        -18.63254353	         -2.79322467	         59.48952168	        -13.83040351	          0.41205159	         74.18909428	         -2.02855785	
